<svg xmlns="http://www.w3.org/2000/svg" viewBox="0 0 32 32" width="32" height="32">
  <circle cx="16" cy="16" r="15" fill="#F0EBE1"/>
  <circle cx="16" cy="16" r="12" fill="none" stroke="#3E6E61" stroke-width="1.6"/>
  <line x1="7" y1="25" x2="25" y2="7" stroke="#3E6E61" stroke-width="1.6" stroke-linecap="round"/>
  <path d="M16 24 L16 8" stroke="#8B7A4A" stroke-width="1.2" stroke-linecap="round" fill="none"/>
  <path d="M16 20 Q13 18.5 12.5 16" stroke="#8B7A4A" stroke-width="1" stroke-linecap="round" fill="none"/>
  <path d="M16 20 Q19 18.5 19.5 16" stroke="#8B7A4A" stroke-width="1" stroke-linecap="round" fill="none"/>
  <path d="M16 16 Q13 14.5 12.5 12" stroke="#8B7A4A" stroke-width="1" stroke-linecap="round" fill="none"/>
  <path d="M16 16 Q19 14.5 19.5 12" stroke="#8B7A4A" stroke-width="1" stroke-linecap="round" fill="none"/>
  <path d="M16 12 Q14 11 14 9.5" stroke="#8B7A4A" stroke-width="1" stroke-linecap="round" fill="none"/>
  <path d="M16 12 Q18 11 18 9.5" stroke="#8B7A4A" stroke-width="1" stroke-linecap="round" fill="none"/>
  <path d="M15 23 Q13.5 22 13 21" stroke="#3E6E61" stroke-width="1.2" stroke-linecap="round" fill="none"/>
  <path d="M17 23 Q18.5 22 19 21" stroke="#3E6E61" stroke-width="1.2" stroke-linecap="round" fill="none"/>
</svg>
